# xmcd
#
# Track frame offsets: 
#        150
#        18447
#        21342
#        42302
#        64580
#        84092
#        104305
#        125247
#        146820
#        168755
#        191880
#
# Disc length: 2883 seconds
#
# Revision: 0
# Processed by: cddbd v1.5.2PL0 Copyright (c) Steve Scherf et al.
# Submitted via: ExactAudioCopy v0.95b3
#
DISCID=940b410b
DTITLE=Lorraine McKane - Perfect Beat [AVCD-11509]
DYEAR=1996
DGENRE=Euro-House
TTITLE0=My Simple Heart
TTITLE1=I Tasted The Flame
TTITLE2=The Love U Love
TTITLE3=Turn The Music Up
TTITLE4=Coming Down
TTITLE5=Don't Wanna Dream
TTITLE6=Searching
TTITLE7=''O'' How The Story Goes
TTITLE8=Forever
TTITLE9=Let The Night Take The Blame (EG-T Edit)
TTITLE10=You Make Me Feel Brand New
EXTD=
EXTT0=
EXTT1=
EXTT2=
EXTT3=
EXTT4=
EXTT5=
EXTT6=
EXTT7=
EXTT8=
EXTT9=
EXTT10=
PLAYORDER=
